<?xml version="1.0" encoding="UTF-8" standalone="no"?>
<svg
   xmlns:dc="http://purl.org/dc/elements/1.1/"
   xmlns:cc="http://creativecommons.org/ns#"
   xmlns:rdf="http://www.w3.org/1999/02/22-rdf-syntax-ns#"
   xmlns:svg="http://www.w3.org/2000/svg"
   xmlns="http://www.w3.org/2000/svg"
   xmlns:sodipodi="http://sodipodi.sourceforge.net/DTD/sodipodi-0.dtd"
   xmlns:inkscape="http://www.inkscape.org/namespaces/inkscape"
   width="137"
   height="28"
   viewBox="0 0 137 28"
   version="1.1"
   id="svg26"
   sodipodi:docname="Logo.svg"
   inkscape:version="0.92.4 5da689c313, 2019-01-14">
  <metadata
     id="metadata32">
    <rdf:RDF>
      <cc:Work
         rdf:about="">
        <dc:format>image/svg+xml</dc:format>
        <dc:type
           rdf:resource="http://purl.org/dc/dcmitype/StillImage" />
      </cc:Work>
    </rdf:RDF>
  </metadata>
  <defs
     id="defs30" />
  <sodipodi:namedview
     pagecolor="#ffffff"
     bordercolor="#666666"
     borderopacity="1"
     objecttolerance="10"
     gridtolerance="10"
     guidetolerance="10"
     inkscape:pageopacity="0"
     inkscape:pageshadow="2"
     inkscape:window-width="655"
     inkscape:window-height="698"
     id="namedview28"
     showgrid="false"
     inkscape:zoom="3.6788321"
     inkscape:cx="66.925797"
     inkscape:cy="30.786748"
     inkscape:window-x="690"
     inkscape:window-y="49"
     inkscape:window-maximized="0"
     inkscape:current-layer="svg26" />
  <g
     id="g24"
     transform="matrix(0.9383313,0,0,1.0097077,0.27182539,1.9415406e-5)">
    <g
       id="g22">
      <g
         id="g10">
        <g
           id="g8">
          <g
             aria-label="BUKEE"
             transform="translate(39,3)"
             style="font-weight:700;font-size:28px;font-family:RobotoSlab, RobotoSlab-Bold;dominant-baseline:text-before-edge;fill:#fefefe"
             id="text6">
            <path
               d="m 10.746094,8.7636719 q 1.24414,0 1.886719,-0.546875 0.642578,-0.546875 0.642578,-1.6132813 0,-1.0527344 -0.642578,-1.5996094 Q 11.990234,4.4433594 10.746094,4.4433594 H 7.8339844 v 4.3203125 z m 0.177734,8.9277341 q 1.585938,0 2.378906,-0.669922 0.806641,-0.669922 0.806641,-2.023437 0,-1.326172 -0.792969,-1.982422 -0.792968,-0.669922 -2.392578,-0.669922 H 7.8339844 v 5.345703 z m 4.894531,-7.341797 q 1.695313,0.492188 2.625,1.81836 0.929688,1.326172 0.929688,3.253906 0,2.953125 -1.996094,4.402344 -1.996094,1.449218 -6.070312,1.449218 H 2.5703125 V 0.86132813 h 7.9023435 q 4.251953,0 6.152344,1.28515627 1.914062,1.2851562 1.914062,4.1152343 0,1.4902344 -0.697265,2.5429688 -0.697266,1.0390625 -2.023438,1.5449215 z"
               style="letter-spacing:1.12"
               id="path34"
               inkscape:connector-curvature="0" />
            <path
               d="m 25.03211,0.86132813 h 5.263672 V 13.097656 q 0,2.529297 0.820313,3.623047 0.833984,1.080078 2.707031,1.080078 1.886719,0 2.707031,-1.080078 0.833984,-1.09375 0.833984,-3.623047 V 0.86132813 h 5.263672 V 13.097656 q 0,4.333985 -2.173828,6.453125 -2.173828,2.119141 -6.630859,2.119141 -4.44336,0 -6.617188,-2.119141 -2.173828,-2.11914 -2.173828,-6.453125 z"
               style="letter-spacing:1.12"
               id="path36"
               inkscape:connector-curvature="0" />
            <path
               d="m 48.888439,0.86132813 h 5.263672 V 8.3125 L 61.740002,0.86132813 H 67.85133 L 58.021252,10.527344 68.863049,21.273437 h -6.589844 l -8.121094,-8.039062 v 8.039062 h -5.263672 z"
               style="letter-spacing:1.12"
               id="path38"
               inkscape:connector-curvature="0" />
            <path
               d="M 71.705704,0.86132813 H 85.910782 V 4.8398437 H 76.969376 V 8.640625 h 8.408203 v 3.978516 h -8.408203 v 4.675781 h 9.242187 v 3.978515 H 71.705704 Z"
               style="letter-spacing:1.12;fill:#65e496"
               id="path40"
               inkscape:connector-curvature="0" />
            <path
               d="m 91.95266,0.86132813 h 14.20508 V 4.8398437 H 97.216331 V 8.640625 h 8.408199 v 3.978516 h -8.408199 v 4.675781 h 9.242189 v 3.978515 H 91.95266 Z"
               style="letter-spacing:1.12;fill:#65e496"
               id="path42"
               inkscape:connector-curvature="0" />
          </g>
        </g>
      </g>
      <g
         id="g20">
        <g
           id="g14">
          <path
             d="m 28,27.999 -28,-28 h 28 z"
             id="path12"
             inkscape:connector-curvature="0"
             style="fill:#65e496" />
        </g>
        <g
           id="g18">
          <path
             d="M 28,0 0,27.998 v -28 z"
             id="path16"
             inkscape:connector-curvature="0"
             style="fill:#44444f" />
        </g>
      </g>
    </g>
  </g>
</svg>
