<svg xmlns="http://www.w3.org/2000/svg" width="137" height="28"><g aria-label="BUKEE" font-weight="700" font-size="28" font-family="RobotoSlab,RobotoSlab-Bold" dominant-baseline="text-before-edge" fill="#fefefe" letter-spacing="1.12"><path d="M46.95 11.878q1.168 0 1.77-.552.603-.552.603-1.63 0-1.062-.602-1.614-.603-.566-1.77-.566h-2.733v4.362zm.167 9.014q1.488 0 2.232-.676.757-.677.757-2.043 0-1.34-.744-2.002-.744-.676-2.245-.676h-2.9v5.397zm4.593-7.413q1.59.497 2.463 1.836.872 1.34.872 3.286 0 2.982-1.873 4.445t-5.696 1.463H39.28V3.9h7.415q3.99 0 5.773 1.297 1.796 1.298 1.796 4.156 0 1.504-.655 2.567-.654 1.05-1.898 1.56zM60.355 3.899h4.94v12.355q0 2.554.769 3.658.783 1.09 2.54 1.09 1.77 0 2.54-1.09.783-1.104.783-3.658V3.899h4.939v12.355q0 4.376-2.04 6.516-2.04 2.14-6.222 2.14-4.17 0-6.21-2.14-2.039-2.14-2.039-6.516zM82.74 3.899h4.94v7.523L94.8 3.9h5.734l-9.224 9.76 10.173 10.85H95.3l-7.62-8.117v8.117h-4.94z"/><path d="M104.15 3.899h13.33v4.017h-8.39v3.838h7.89v4.017h-7.89v4.721h8.672v4.017H104.15zM123.149 3.899h13.329v4.017h-8.39v3.838h7.89v4.017h-7.89v4.721h8.672v4.017H123.15z" fill="#65e496"/></g><path d="M26.545 28.27L.272 0h26.273z" fill="#65e496"/><path d="M26.545 0L.272 28.27V-.002z" fill="#44444f"/></svg>