<svg xmlns="http://www.w3.org/2000/svg" width="137" height="28"><g aria-label="BUKEE" font-weight="700" font-size="28" font-family="RobotoSlab,RobotoSlab-Bold" dominant-baseline="text-before-edge" fill="#fefefe" letter-spacing="1.12"><path d="M46.95 12.035q1.168 0 1.77-.546.603-.547.603-1.614 0-1.052-.602-1.6-.603-.56-1.77-.56h-2.733v4.32zm.167 8.928q1.488 0 2.232-.67.757-.67.757-2.023 0-1.326-.744-1.983-.744-.67-2.245-.67h-2.9v5.346zm4.593-7.342q1.59.493 2.463 1.819.872 1.326.872 3.254 0 2.953-1.873 4.402-1.873 1.45-5.696 1.45H39.28V4.132h7.415q3.99 0 5.773 1.285 1.796 1.285 1.796 4.116 0 1.49-.655 2.543-.654 1.039-1.898 1.544zM60.355 4.133h4.94V16.37q0 2.53.769 3.624.783 1.08 2.54 1.08 1.77 0 2.54-1.08.783-1.094.783-3.624V4.133h4.939V16.37q0 4.334-2.04 6.454-2.04 2.119-6.222 2.119-4.17 0-6.21-2.12-2.039-2.119-2.039-6.453zM82.74 4.133h4.94v7.451l7.12-7.45h5.734l-9.224 9.665 10.173 10.746H95.3l-7.62-8.039v8.04h-4.94z"/><path d="M104.15 4.133h13.33v3.979h-8.39v3.8h7.89v3.979h-7.89v4.676h8.672v3.978H104.15zM123.149 4.133h13.329v3.979h-8.39v3.8h7.89v3.979h-7.89v4.676h8.672v3.978H123.15z" fill="#65e496"/></g><path d="M26.545 28.27L.272.27h26.273z" fill="#65e496"/><path d="M26.545.272L.272 28.27v-28z" fill="#80809b"/></svg>