<svg xmlns="http://www.w3.org/2000/svg" width="137" height="28"><g aria-label="BUKEE" font-weight="700" font-size="28" font-family="RobotoSlab,RobotoSlab-Bold" dominant-baseline="text-before-edge" fill="#fefefe" letter-spacing="1.12"><path d="M49.746 11.764q1.244 0 1.887-.547.642-.547.642-1.613 0-1.053-.642-1.6-.643-.56-1.887-.56h-2.912v4.32zm.178 8.927q1.586 0 2.379-.67.806-.67.806-2.023 0-1.326-.793-1.982-.793-.67-2.392-.67h-3.09v5.345zm4.894-7.341q1.696.492 2.625 1.818.93 1.326.93 3.254 0 2.953-1.996 4.402-1.996 1.45-6.07 1.45H41.57V3.86h7.903q4.252 0 6.152 1.285 1.914 1.286 1.914 4.116 0 1.49-.697 2.543-.697 1.039-2.024 1.545zM64.032 3.861h5.264v12.237q0 2.529.82 3.623.834 1.08 2.707 1.08 1.887 0 2.707-1.08.834-1.094.834-3.623V3.86h5.264v12.237q0 4.334-2.174 6.453-2.174 2.119-6.63 2.119-4.444 0-6.618-2.12-2.174-2.118-2.174-6.452zM87.888 3.861h5.264v7.451l7.588-7.45h6.111l-9.83 9.665 10.842 10.746h-6.59l-8.12-8.039v8.04h-5.265z"/><path d="M110.706 3.861h14.205V7.84h-8.942v3.8h8.409v3.98h-8.409v4.675h9.243v3.978h-14.506zM130.953 3.861h14.205V7.84h-8.942v3.8h8.409v3.98h-8.409v4.675h9.243v3.978h-14.506z" fill="#65e496"/></g><path fill="#65e496" d="M28 27.999l-28-28h28z"/><path fill="#44444f" d="M28 0L0 27.998v-28z"/></svg>